<svg width="251" height="63" viewBox="0 0 251 63" fill="none" xmlns="http://www.w3.org/2000/svg">
<g clip-path="url(#clip0)">
<path d="M7.41797 63.0001L15.4176 46.3314C15.4176 46.3314 19.1624 38.7875 19.4073 33.0499C19.642 27.7537 16.6625 26.8402 16.1931 26.7273C15.7238 26.6144 12.6627 26.0499 10.4485 30.8534C8.0506 36.0675 7.92815 44.4942 7.92815 44.4942L7.41797 63.0001Z" fill="url(#paint0_linear)"/>
<path d="M23.8257 10.8489H33.2233V39.7213H23.8257V10.8489Z" fill="white"/>
<path d="M36.8047 10.8489H45.9268V15.909H46.039C47.4165 12.2346 50.6307 10.2947 54.6713 10.2947C55.3958 10.2947 56.161 10.346 56.8855 10.5205V19.1422C55.6713 18.8035 54.5591 18.5879 53.2938 18.5879C48.6511 18.5879 46.2125 21.8108 46.2125 25.434V39.7214H36.8149V10.8489H36.8047Z" fill="white"/>
<path d="M67.538 27.5894C67.7013 31.541 69.9665 34.1583 73.9561 34.1583C76.2213 34.1583 78.4355 33.1012 79.3232 30.9868H88.1188C86.4046 37.6583 80.262 40.5528 73.8541 40.5528C64.5075 40.5528 58.1506 34.8768 58.1506 25.1979C58.1506 16.3504 65.1708 10.0073 73.6398 10.0073C83.9251 10.0073 89.0677 17.7976 88.629 27.5894H67.538ZM79.2008 22.3138C79.0375 19.0909 76.7723 16.412 73.6194 16.412C70.3032 16.412 68.089 18.8035 67.538 22.3138H79.2008Z" fill="white"/>
<path d="M125.148 39.7213H115.638L111.098 20.5278H110.985L106.506 39.7213H96.9962L88.0374 10.8489H97.5472L102.363 29.5395H102.476L106.567 10.8489H115.526L119.73 29.4882H119.842L124.546 10.8489H134.117L125.148 39.7213Z" fill="white"/>
<path d="M148.412 10.0176C157.32 10.0176 163.565 16.6378 163.565 25.3211C163.565 34.0044 157.31 40.563 148.412 40.563C139.504 40.563 133.311 34.0044 133.311 25.3211C133.311 16.6378 139.504 10.0176 148.412 10.0176ZM148.412 33.327C152.779 33.327 154.167 28.9853 154.167 25.3211C154.167 21.6466 152.779 17.2536 148.412 17.2536C144.045 17.2536 142.719 21.6466 142.719 25.3211C142.708 28.9853 144.035 33.327 148.412 33.327Z" fill="white"/>
<path d="M166.197 10.8489H175.319V15.909H175.432C176.809 12.2346 180.023 10.2947 184.064 10.2947C184.778 10.2947 185.554 10.346 186.278 10.5205V19.1422C185.064 18.8035 183.952 18.5879 182.686 18.5879C178.044 18.5879 175.605 21.8108 175.605 25.434V39.7214H166.207V10.8489H166.197Z" fill="white"/>
<path d="M189.023 0H198.421V20.4765L206.992 10.849H217.889L207.379 21.7493L219.216 39.7214H207.879L200.859 28.0924L198.431 30.4839V39.7214H189.033V0H189.023Z" fill="white"/>
<path d="M230.481 24.5923L221.358 10.8489H231.756L235.797 17.7462L239.837 10.8489H249.796L240.837 24.4178L251.01 39.7213H240.603L235.623 31.3767L230.919 39.7213H220.522L230.481 24.5923Z" fill="white"/>
<path d="M16.8667 10.849C17.4177 8.23167 18.3054 7.40029 20.4584 7.40029C21.7338 7.40029 22.6725 7.45161 23.3868 7.56452L24.9378 0.277126C23.0093 0.164223 21.1318 0 19.1931 0C10.622 0 7.63234 2.34018 5.91813 10.849H1.48974L0 17.6334H4.53043L0 39.7214H6.20383C6.54055 36.7654 7.21399 32.9883 8.56088 30.0528C10.1935 26.5015 12.3464 25.2493 13.9994 24.8592L15.4892 17.6232H25.3969L26.8356 10.8387H16.8667V10.849Z" fill="white"/>
<path d="M133.77 44.2888V45.7155H132.882V44.2888H133.77ZM133.77 47.0806V54.3577H132.882V47.0806H133.77Z" fill="white"/>
<path d="M136.403 47.0805V48.3327H136.433C136.607 47.8914 136.903 47.5321 137.331 47.2653C137.76 46.9984 138.229 46.865 138.749 46.865C139.249 46.865 139.678 46.9266 140.015 47.06C140.362 47.1934 140.627 47.3782 140.831 47.6143C141.035 47.8503 141.178 48.148 141.27 48.497C141.351 48.8459 141.402 49.236 141.402 49.667V54.3474H140.515V49.8107C140.515 49.5028 140.484 49.2154 140.433 48.9486C140.382 48.6817 140.28 48.4456 140.137 48.2506C139.994 48.0556 139.811 47.9016 139.566 47.7887C139.331 47.6758 139.035 47.6143 138.678 47.6143C138.321 47.6143 138.005 47.6758 137.729 47.8093C137.454 47.9324 137.219 48.1069 137.025 48.3327C136.831 48.5483 136.688 48.8151 136.576 49.1231C136.474 49.431 136.413 49.7594 136.403 50.1187V54.3679H135.515V47.0908H136.403V47.0805Z" fill="white"/>
<path d="M147.269 48.4972C147.167 48.2919 147.025 48.1277 146.851 47.9943C146.678 47.8608 146.484 47.7685 146.259 47.7069C146.035 47.6453 145.8 47.6145 145.545 47.6145C145.351 47.6145 145.147 47.635 144.943 47.6761C144.739 47.7171 144.555 47.789 144.392 47.8916C144.219 47.9943 144.086 48.1174 143.984 48.2816C143.882 48.4459 143.831 48.6409 143.831 48.877C143.831 49.072 143.882 49.2465 143.974 49.3799C144.076 49.5133 144.198 49.6365 144.341 49.7289C144.494 49.8212 144.657 49.9033 144.831 49.9649C145.004 50.0265 145.168 50.0778 145.321 50.1086L146.494 50.3755C146.749 50.4165 146.994 50.4781 147.239 50.5808C147.484 50.6834 147.708 50.8066 147.902 50.9708C148.096 51.135 148.249 51.33 148.371 51.5661C148.494 51.8022 148.555 52.0793 148.555 52.3975C148.555 52.7875 148.463 53.1262 148.29 53.4033C148.116 53.6805 147.892 53.9063 147.616 54.0808C147.341 54.2552 147.025 54.3784 146.688 54.4503C146.341 54.5221 145.994 54.5632 145.667 54.5632C144.821 54.5632 144.127 54.3579 143.596 53.9576C143.066 53.5573 142.77 52.9004 142.698 52.0074H143.586C143.627 52.613 143.841 53.0646 144.239 53.3726C144.637 53.6805 145.127 53.8344 145.719 53.8344C145.933 53.8344 146.157 53.8139 146.382 53.7626C146.606 53.7113 146.82 53.6394 147.025 53.5265C147.218 53.4136 147.382 53.2699 147.504 53.0954C147.637 52.9209 147.698 52.7054 147.698 52.4488C147.698 52.2333 147.657 52.0485 147.565 51.9048C147.474 51.7611 147.361 51.6379 147.208 51.5353C147.055 51.4327 146.892 51.3506 146.698 51.289C146.504 51.2274 146.31 51.1658 146.116 51.1145L144.984 50.8579C144.688 50.786 144.433 50.6937 144.188 50.6013C143.943 50.4987 143.729 50.3858 143.545 50.2318C143.361 50.0881 143.219 49.9033 143.117 49.6981C143.015 49.4825 142.964 49.2259 142.964 48.918C142.964 48.5485 143.045 48.2406 143.208 47.9737C143.372 47.7069 143.586 47.5016 143.851 47.3374C144.106 47.1731 144.402 47.0602 144.729 46.9884C145.055 46.9165 145.372 46.8755 145.688 46.8755C146.055 46.8755 146.392 46.9268 146.708 47.0192C147.025 47.1116 147.3 47.2553 147.535 47.4605C147.769 47.6555 147.963 47.9019 148.106 48.1893C148.249 48.4767 148.32 48.8256 148.341 49.2157H147.453C147.423 48.9385 147.371 48.7025 147.269 48.4972Z" fill="white"/>
<path d="M150.749 47.0805V48.4662H150.78C150.984 47.953 151.32 47.5629 151.779 47.2858C152.239 47.0087 152.769 46.865 153.351 46.865C153.902 46.865 154.381 46.9676 154.79 47.1729C155.198 47.3782 155.534 47.6656 155.81 48.0145C156.085 48.3635 156.279 48.7741 156.412 49.2462C156.545 49.7081 156.606 50.2008 156.606 50.7242C156.606 51.2374 156.545 51.7301 156.412 52.2022C156.279 52.6641 156.075 53.0747 155.81 53.4339C155.534 53.7829 155.198 54.06 154.79 54.2653C154.381 54.4706 153.902 54.5629 153.351 54.5629C153.086 54.5629 152.83 54.5321 152.565 54.4603C152.3 54.3885 152.065 54.2961 151.841 54.1626C151.616 54.0292 151.412 53.865 151.249 53.67C151.075 53.475 150.943 53.2389 150.851 52.9823H150.82V57.0468H149.933V47.0908H150.749V47.0805ZM155.596 49.5952C155.504 49.2257 155.371 48.8972 155.177 48.5996C154.983 48.3122 154.739 48.0659 154.443 47.8811C154.147 47.6964 153.779 47.604 153.361 47.604C152.871 47.604 152.463 47.6861 152.137 47.8606C151.81 48.0351 151.545 48.2609 151.351 48.538C151.157 48.8151 151.014 49.1436 150.943 49.5233C150.861 49.9031 150.82 50.2931 150.82 50.7037C150.82 51.0835 150.861 51.453 150.953 51.8225C151.045 52.192 151.188 52.5204 151.392 52.8181C151.596 53.1055 151.851 53.3415 152.177 53.5263C152.504 53.711 152.892 53.8034 153.361 53.8034C153.779 53.8034 154.147 53.711 154.443 53.5263C154.739 53.3415 154.983 53.1055 155.177 52.8181C155.371 52.5307 155.514 52.192 155.596 51.8225C155.687 51.453 155.728 51.0732 155.728 50.7037C155.728 50.3445 155.687 49.9647 155.596 49.5952Z" fill="white"/>
<path d="M158.942 44.2888V45.7155H158.055V44.2888H158.942ZM158.942 47.0806V54.3577H158.055V47.0806H158.942Z" fill="white"/>
<path d="M161.514 47.0806V48.7844H161.544C161.769 48.1891 162.116 47.7375 162.585 47.4193C163.055 47.1011 163.616 46.9574 164.279 46.9882V47.8709C163.881 47.8504 163.514 47.912 163.187 48.0351C162.861 48.1583 162.575 48.343 162.34 48.5791C162.106 48.8152 161.912 49.0923 161.789 49.4208C161.657 49.7492 161.595 50.0982 161.595 50.4882V54.368H160.708V47.0908H161.514V47.0806Z" fill="white"/>
<path d="M165.677 51.9559C165.769 52.2946 165.901 52.6025 166.105 52.8796C166.299 53.1568 166.554 53.3826 166.85 53.5571C167.146 53.7315 167.503 53.8239 167.932 53.8239C168.575 53.8239 169.085 53.6494 169.442 53.321C169.809 52.9823 170.064 52.5307 170.197 51.9661H171.085C170.901 52.7975 170.554 53.4339 170.054 53.8855C169.554 54.3371 168.85 54.5629 167.932 54.5629C167.36 54.5629 166.871 54.4603 166.452 54.2653C166.034 54.06 165.697 53.7829 165.432 53.4339C165.167 53.0849 164.973 52.6744 164.85 52.2022C164.728 51.7403 164.656 51.2477 164.656 50.7242C164.656 50.2418 164.718 49.7799 164.85 49.318C164.983 48.8562 165.167 48.4456 165.432 48.0864C165.697 47.7271 166.034 47.4295 166.452 47.2139C166.871 46.9881 167.36 46.8855 167.932 46.8855C168.513 46.8855 169.003 46.9984 169.422 47.2345C169.83 47.4705 170.167 47.7785 170.422 48.1582C170.677 48.538 170.86 48.9793 170.973 49.472C171.085 49.9647 171.136 50.4676 171.115 50.9705H165.544C165.544 51.2785 165.585 51.6069 165.677 51.9559ZM170.054 49.2359C169.952 48.928 169.799 48.6509 169.595 48.4148C169.401 48.1788 169.156 47.9837 168.881 47.84C168.595 47.6963 168.279 47.6245 167.932 47.6245C167.565 47.6245 167.248 47.6963 166.963 47.84C166.687 47.9837 166.442 48.1788 166.248 48.4148C166.054 48.6509 165.901 48.928 165.779 49.2462C165.656 49.5644 165.585 49.8826 165.544 50.211H170.228C170.218 49.8723 170.156 49.5439 170.054 49.2359Z" fill="white"/>
<path d="M177.993 54.3578V52.9721H177.962C177.87 53.2082 177.728 53.4237 177.544 53.6188C177.36 53.8138 177.156 53.9883 176.921 54.1217C176.687 54.2551 176.442 54.368 176.177 54.4399C175.911 54.5117 175.646 54.5528 175.381 54.5528C174.83 54.5528 174.35 54.4501 173.942 54.2551C173.534 54.0498 173.197 53.7727 172.922 53.4237C172.646 53.0748 172.452 52.6642 172.32 52.1921C172.187 51.7302 172.126 51.2375 172.126 50.7141C172.126 50.2009 172.187 49.7082 172.32 49.2361C172.452 48.7742 172.656 48.3636 172.922 48.0044C173.197 47.6554 173.534 47.368 173.942 47.1627C174.35 46.9575 174.83 46.8548 175.381 46.8548C175.656 46.8548 175.911 46.8856 176.177 46.9575C176.432 47.019 176.677 47.1217 176.901 47.2551C177.126 47.3885 177.319 47.563 177.493 47.758C177.666 47.9531 177.799 48.1891 177.891 48.4457H177.921V44.2683H178.809V54.3372H177.993V54.3578ZM173.146 51.8328C173.238 52.2023 173.371 52.5308 173.564 52.8284C173.758 53.1158 174.003 53.3519 174.299 53.5366C174.595 53.7214 174.952 53.8138 175.381 53.8138C175.85 53.8138 176.248 53.7214 176.564 53.5366C176.881 53.3519 177.146 53.1158 177.35 52.8284C177.554 52.541 177.697 52.2023 177.789 51.8328C177.881 51.4633 177.921 51.0836 177.921 50.7141C177.921 50.3343 177.881 49.9648 177.789 49.5953C177.697 49.2258 177.554 48.8973 177.35 48.5997C177.146 48.3123 176.881 48.066 176.564 47.8812C176.238 47.6965 175.84 47.6041 175.381 47.6041C174.962 47.6041 174.595 47.6965 174.299 47.8812C174.003 48.066 173.748 48.302 173.564 48.5997C173.371 48.8871 173.238 49.2258 173.146 49.5953C173.054 49.9648 173.013 50.3446 173.013 50.7141C173.024 51.0938 173.064 51.4633 173.146 51.8328Z" fill="white"/>
<path d="M187.819 47.0807V47.83H186.35V52.7362C186.35 53.0338 186.39 53.2596 186.472 53.4239C186.554 53.5881 186.748 53.6805 187.064 53.701C187.319 53.701 187.564 53.6907 187.819 53.6599V54.3989C187.686 54.3989 187.554 54.3989 187.431 54.4092C187.309 54.4195 187.166 54.4195 187.043 54.4195C186.452 54.4195 186.043 54.3066 185.809 54.0705C185.574 53.8447 185.462 53.4136 185.472 52.7978V47.83H184.207V47.0807H185.472V44.8945H186.36V47.0807H187.819Z" fill="white"/>
<path d="M189.472 51.9559C189.564 52.2946 189.706 52.6025 189.9 52.8796C190.094 53.1568 190.339 53.3826 190.645 53.5571C190.941 53.7315 191.298 53.8239 191.727 53.8239C192.37 53.8239 192.88 53.6494 193.237 53.321C193.604 52.9823 193.849 52.5307 193.992 51.9661H194.88C194.696 52.7975 194.349 53.4339 193.849 53.8855C193.349 54.3371 192.635 54.5629 191.727 54.5629C191.155 54.5629 190.666 54.4603 190.247 54.2653C189.829 54.06 189.492 53.7829 189.227 53.4339C188.962 53.0849 188.768 52.6744 188.645 52.2022C188.513 51.7403 188.451 51.2477 188.451 50.7242C188.451 50.2418 188.513 49.7799 188.645 49.318C188.768 48.8562 188.962 48.4456 189.227 48.0864C189.492 47.7271 189.829 47.4295 190.247 47.2139C190.666 46.9881 191.155 46.8855 191.727 46.8855C192.308 46.8855 192.798 46.9984 193.217 47.2345C193.625 47.4705 193.961 47.7785 194.217 48.1582C194.472 48.538 194.655 48.9793 194.768 49.472C194.88 49.9647 194.931 50.4676 194.91 50.9705H189.339C189.339 51.2785 189.38 51.6069 189.472 51.9559ZM193.849 49.2359C193.737 48.928 193.594 48.6509 193.39 48.4148C193.196 48.1788 192.951 47.9837 192.676 47.84C192.4 47.6963 192.074 47.6245 191.727 47.6245C191.359 47.6245 191.043 47.6963 190.757 47.84C190.472 47.9837 190.237 48.1788 190.043 48.4148C189.849 48.6509 189.686 48.928 189.574 49.2462C189.451 49.5644 189.38 49.8826 189.339 50.211H194.023C194.012 49.8723 193.951 49.5439 193.849 49.2359Z" fill="white"/>
<path d="M200.696 48.0761C200.369 47.7682 199.91 47.6142 199.318 47.6142C198.9 47.6142 198.522 47.7066 198.206 47.8811C197.89 48.0556 197.625 48.2917 197.41 48.5893C197.196 48.8767 197.043 49.2154 196.931 49.5849C196.818 49.9544 196.767 50.3342 196.767 50.7242C196.767 51.1142 196.818 51.4837 196.931 51.8635C197.043 52.233 197.196 52.5615 197.41 52.8591C197.625 53.1465 197.88 53.3826 198.206 53.5673C198.522 53.7418 198.89 53.8342 199.318 53.8342C199.584 53.8342 199.849 53.7829 200.084 53.6802C200.328 53.5776 200.543 53.4339 200.726 53.2491C200.91 53.0644 201.063 52.8488 201.186 52.5922C201.308 52.3356 201.379 52.0585 201.41 51.7609H202.298C202.175 52.6436 201.849 53.3312 201.328 53.8239C200.808 54.3166 200.135 54.5629 199.308 54.5629C198.757 54.5629 198.267 54.4603 197.839 54.2653C197.41 54.06 197.053 53.7931 196.767 53.4442C196.482 53.0952 196.257 52.6846 196.114 52.2227C195.961 51.7609 195.89 51.2579 195.89 50.7345C195.89 50.211 195.961 49.7081 196.114 49.2462C196.257 48.7843 196.482 48.3738 196.767 48.0248C197.053 47.6758 197.41 47.3987 197.839 47.1934C198.267 46.9881 198.757 46.8855 199.308 46.8855C200.084 46.8855 200.737 47.0908 201.277 47.5013C201.818 47.9119 202.135 48.538 202.237 49.3796H201.349C201.257 48.8151 201.033 48.384 200.696 48.0761Z" fill="white"/>
<path d="M204.512 44.2888V48.3328H204.543C204.716 47.8915 205.012 47.5322 205.441 47.2654C205.869 46.9985 206.338 46.8651 206.859 46.8651C207.369 46.8651 207.787 46.9266 208.124 47.0601C208.461 47.1935 208.736 47.3783 208.94 47.6143C209.144 47.8504 209.287 48.1481 209.379 48.497C209.461 48.846 209.512 49.236 209.512 49.6671V54.3475H208.624V49.8108C208.624 49.5029 208.593 49.2155 208.542 48.9486C208.491 48.6818 208.389 48.4457 208.247 48.2507C208.104 48.0557 207.92 47.9017 207.685 47.7888C207.451 47.6759 207.145 47.6143 206.798 47.6143C206.441 47.6143 206.124 47.6759 205.849 47.8093C205.573 47.9325 205.339 48.107 205.145 48.3328C204.951 48.5484 204.808 48.8152 204.696 49.1231C204.594 49.431 204.532 49.7595 204.522 50.1187V54.368H203.635V44.2991H204.512V44.2888Z" fill="white"/>
<path d="M212.114 47.0805V48.3327H212.144C212.308 47.8914 212.614 47.5321 213.042 47.2653C213.471 46.9984 213.94 46.865 214.461 46.865C214.971 46.865 215.389 46.9266 215.726 47.06C216.063 47.1934 216.338 47.3782 216.542 47.6143C216.746 47.8503 216.889 48.148 216.981 48.497C217.063 48.8459 217.103 49.236 217.103 49.667V54.3474H216.216V49.8107C216.216 49.5028 216.185 49.2154 216.134 48.9486C216.083 48.6817 215.981 48.4456 215.838 48.2506C215.695 48.0556 215.512 47.9016 215.267 47.7887C215.032 47.6758 214.736 47.6143 214.379 47.6143C214.022 47.6143 213.706 47.6758 213.43 47.8093C213.155 47.9324 212.92 48.1069 212.726 48.3327C212.532 48.5483 212.379 48.8151 212.277 49.1231C212.165 49.431 212.114 49.7594 212.104 50.1187V54.3679H211.226V47.0908H212.114V47.0805Z" fill="white"/>
<path d="M223.358 47.1729C223.787 47.3782 224.144 47.6553 224.43 48.0043C224.715 48.3533 224.94 48.7536 225.093 49.2257C225.246 49.6876 225.317 50.1905 225.317 50.714C225.317 51.2374 225.246 51.7404 225.093 52.2022C224.94 52.6641 224.725 53.0747 224.43 53.4236C224.144 53.7726 223.787 54.0497 223.358 54.2448C222.93 54.45 222.44 54.5424 221.889 54.5424C221.338 54.5424 220.848 54.4398 220.42 54.2448C219.991 54.0395 219.634 53.7726 219.348 53.4236C219.052 53.0747 218.838 52.6641 218.685 52.2022C218.532 51.7404 218.46 51.2374 218.46 50.714C218.46 50.1905 218.532 49.6876 218.685 49.2257C218.838 48.7638 219.052 48.3533 219.348 48.0043C219.634 47.6553 219.991 47.3782 220.42 47.1729C220.848 46.9676 221.328 46.865 221.889 46.865C222.45 46.865 222.94 46.9676 223.358 47.1729ZM220.787 47.8811C220.471 48.0556 220.205 48.2917 219.991 48.5893C219.777 48.8767 219.624 49.2154 219.522 49.5849C219.409 49.9544 219.358 50.3342 219.358 50.7242C219.358 51.1143 219.409 51.4838 219.522 51.8635C219.624 52.233 219.787 52.5615 219.991 52.8591C220.205 53.1465 220.471 53.3826 220.787 53.5673C221.103 53.7418 221.471 53.8342 221.899 53.8342C222.317 53.8342 222.685 53.7418 223.011 53.5673C223.328 53.3929 223.593 53.1568 223.807 52.8591C224.021 52.5615 224.174 52.233 224.287 51.8635C224.399 51.494 224.45 51.1143 224.45 50.7242C224.45 50.3342 224.399 49.9647 224.287 49.5849C224.174 49.2154 224.021 48.887 223.807 48.5893C223.593 48.3019 223.338 48.0659 223.011 47.8811C222.695 47.7066 222.328 47.6143 221.899 47.6143C221.481 47.6143 221.103 47.7066 220.787 47.8811Z" fill="white"/>
<path d="M227.623 44.2888V54.3577H226.736V44.2888H227.623Z" fill="white"/>
<path d="M233.95 47.1729C234.378 47.3782 234.735 47.6553 235.021 48.0043C235.317 48.3533 235.531 48.7536 235.684 49.2257C235.837 49.6876 235.909 50.1905 235.909 50.714C235.909 51.2374 235.837 51.7404 235.684 52.2022C235.531 52.6641 235.317 53.0747 235.021 53.4236C234.725 53.7726 234.378 54.0497 233.95 54.2448C233.521 54.45 233.031 54.5424 232.48 54.5424C231.929 54.5424 231.44 54.4398 231.011 54.2448C230.583 54.0395 230.225 53.7726 229.94 53.4236C229.654 53.0747 229.43 52.6641 229.287 52.2022C229.134 51.7404 229.062 51.2374 229.062 50.714C229.062 50.1905 229.134 49.6876 229.287 49.2257C229.44 48.7638 229.654 48.3533 229.94 48.0043C230.236 47.6553 230.583 47.3782 231.011 47.1729C231.44 46.9676 231.929 46.865 232.48 46.865C233.031 46.865 233.521 46.9676 233.95 47.1729ZM231.378 47.8811C231.062 48.0556 230.797 48.2917 230.583 48.5893C230.368 48.8767 230.215 49.2154 230.103 49.5849C230.001 49.9544 229.94 50.3342 229.94 50.7242C229.94 51.1143 229.991 51.4838 230.103 51.8635C230.215 52.233 230.368 52.5615 230.583 52.8591C230.797 53.1465 231.052 53.3826 231.378 53.5673C231.695 53.7418 232.062 53.8342 232.491 53.8342C232.909 53.8342 233.276 53.7418 233.603 53.5673C233.919 53.3929 234.184 53.1568 234.399 52.8591C234.613 52.5615 234.766 52.233 234.878 51.8635C234.991 51.494 235.042 51.1143 235.042 50.7242C235.042 50.3342 234.991 49.9647 234.878 49.5849C234.766 49.2154 234.613 48.887 234.399 48.5893C234.184 48.3019 233.929 48.0659 233.603 47.8811C233.287 47.7066 232.919 47.6143 232.491 47.6143C232.062 47.6143 231.695 47.7066 231.378 47.8811Z" fill="white"/>
<path d="M243.245 55.2096C243.133 55.6406 242.949 56.0101 242.694 56.3078C242.439 56.6055 242.113 56.8415 241.705 56.9955C241.296 57.1597 240.796 57.2316 240.215 57.2316C239.847 57.2316 239.49 57.1905 239.143 57.1084C238.797 57.0263 238.49 56.8928 238.215 56.7184C237.939 56.5439 237.715 56.3078 237.531 56.0307C237.348 55.7535 237.246 55.4251 237.215 55.0351H238.103C238.154 55.3122 238.246 55.538 238.378 55.7228C238.511 55.9075 238.674 56.0512 238.868 56.1641C239.062 56.277 239.266 56.3591 239.501 56.4104C239.735 56.4618 239.97 56.4926 240.215 56.4926C241.031 56.4926 241.633 56.2565 241.99 55.7843C242.358 55.3122 242.541 54.6348 242.541 53.7521V52.7667H242.511C242.307 53.2184 242 53.5776 241.613 53.8547C241.215 54.1319 240.745 54.2653 240.215 54.2653C239.633 54.2653 239.143 54.1729 238.725 53.9779C238.317 53.7829 237.97 53.516 237.705 53.1773C237.439 52.8386 237.246 52.4383 237.123 51.9867C237.001 51.5351 236.939 51.0424 236.939 50.5292C236.939 50.0263 237.011 49.5541 237.154 49.1128C237.297 48.6714 237.511 48.2711 237.786 47.9427C238.062 47.604 238.409 47.3474 238.807 47.1524C239.215 46.9574 239.674 46.865 240.205 46.865C240.48 46.865 240.725 46.906 240.97 46.9779C241.205 47.0497 241.429 47.1626 241.623 47.2961C241.817 47.4295 241.99 47.5937 242.154 47.7682C242.307 47.9427 242.429 48.1377 242.511 48.3327H242.541V47.0805H243.429V53.7623C243.419 54.2961 243.358 54.7785 243.245 55.2096ZM241.215 53.2799C241.5 53.1157 241.745 52.9002 241.939 52.6333C242.133 52.3665 242.286 52.0585 242.378 51.7096C242.48 51.3606 242.521 51.0014 242.521 50.6319C242.521 50.2726 242.48 49.9134 242.398 49.5644C242.317 49.2052 242.184 48.887 241.99 48.5893C241.807 48.3019 241.562 48.0659 241.266 47.8811C240.97 47.7066 240.613 47.6143 240.194 47.6143C239.776 47.6143 239.409 47.6964 239.113 47.8709C238.817 48.0453 238.562 48.2711 238.368 48.5585C238.174 48.8357 238.031 49.1641 237.939 49.5233C237.848 49.8826 237.807 50.2521 237.807 50.6319C237.807 51.0014 237.858 51.3606 237.95 51.7096C238.041 52.0585 238.184 52.3665 238.388 52.6333C238.582 52.9002 238.837 53.1157 239.133 53.2799C239.429 53.4442 239.786 53.5263 240.205 53.5263C240.592 53.5263 240.929 53.4442 241.215 53.2799Z" fill="white"/>
<path d="M245.367 47.0806L247.755 53.2902L249.99 47.0806H250.877L247.735 55.4559C247.602 55.7639 247.48 56.0204 247.367 56.2257C247.255 56.431 247.133 56.585 247 56.7081C246.867 56.821 246.704 56.9134 246.52 56.9647C246.337 57.0161 246.102 57.0366 245.827 57.0366C245.653 57.0263 245.51 57.0161 245.418 57.0161C245.316 57.0161 245.235 56.9955 245.163 56.9647V56.2155C245.265 56.236 245.367 56.2565 245.459 56.2668C245.561 56.277 245.663 56.2873 245.755 56.2873C245.949 56.2873 246.112 56.2565 246.235 56.2052C246.357 56.1539 246.469 56.0718 246.561 55.9691C246.653 55.8665 246.735 55.7536 246.796 55.6099C246.857 55.4662 246.929 55.3122 247.01 55.148L247.316 54.3269L244.429 47.0806H245.367Z" fill="white"/>
</g>
<defs>
<linearGradient id="paint0_linear" x1="7.26349" y1="62.965" x2="16.3407" y2="26.7718" gradientUnits="userSpaceOnUse">
<stop offset="0.086" stop-color="white" stop-opacity="0"/>
<stop offset="0.2085" stop-color="#FDEAD6" stop-opacity="0.2588"/>
<stop offset="0.5591" stop-color="#F9B164"/>
<stop offset="0.622" stop-color="#F9AC5A"/>
<stop offset="1" stop-color="#F78E1E"/>
</linearGradient>
<clipPath id="clip0">
<rect width="251" height="63" fill="white"/>
</clipPath>
</defs>
</svg>
