<svg width="162" height="73" viewBox="0 0 162 73" fill="none" xmlns="http://www.w3.org/2000/svg">
<path d="M143.882 22.8492C143.262 22.6478 142.642 22.4665 142.022 22.3087C132.536 20.2276 122.727 25.3633 119.523 34.4365C117.866 39.1325 118.204 44.171 120.474 48.622C120.599 48.867 120.732 49.112 120.871 49.3504C120.526 47.1886 120.7 44.9195 121.48 42.7074C124.075 35.363 132.352 31.4356 139.968 33.9364C147.587 36.4371 151.661 44.416 149.067 51.7571C146.483 59.0747 138.251 62.9987 130.653 60.5517L130.649 60.5618C125.071 58.7324 120.565 54.9124 117.96 49.8136C115.359 44.7148 114.969 38.9446 116.87 33.5638C118.245 29.6733 120.68 26.4173 123.758 23.9904C117.493 26.8772 112.388 32.0969 109.975 38.9345C105.218 52.4016 112.691 67.0335 126.662 71.6188C140.633 76.204 155.815 69.0005 160.568 55.5334C165.322 42.0663 157.852 27.4311 143.882 22.8492Z" fill="#FF4611"/>
<path d="M81.1949 21.6978C76.8944 21.6978 72.7749 23.0438 69.2927 25.5882L68.248 26.3502L68.2794 0H68.248C61.3115 0.0167835 55.6912 5.44458 55.6912 12.1379V71.9175H68.248V43.8755C68.248 37.7093 72.8028 33.4026 79.318 33.4026C89.2075 33.4026 89.9736 41.4184 89.9736 43.8755V71.9175H102.426V43.8755C102.429 30.6098 93.8946 21.6978 81.1949 21.6978Z" fill="white"/>
<path d="M25.5072 21.6978C21.2067 21.6978 17.0872 23.0438 13.605 25.5882L12.5604 26.3502L12.5917 0H12.5604C5.6203 0.0167835 0 5.44458 0 12.1379V71.9175H12.5569V43.8755C12.5569 37.7093 17.1116 33.4026 23.6303 33.4026C33.5163 33.4026 34.2859 41.4184 34.2859 43.8755V71.9175H46.7383V43.8755C46.7418 30.6098 38.2069 21.6978 25.5072 21.6978Z" fill="white"/>
</svg>
