<svg width="95" height="102" viewBox="0 0 95 102" fill="none" xmlns="http://www.w3.org/2000/svg">
<path fill-rule="evenodd" clip-rule="evenodd" d="M94.8696 50.0504C94.8641 41.0005 93.8598 32.37 91.9725 24.3299C85.9632 18.6737 78.9881 13.47 71.1633 8.95058C64.6959 5.21473 58.0574 2.27351 51.5183 0C51.6066 2.60461 52.324 5.6893 53.6539 8.93402C56.9648 10.3908 60.4855 12.8189 63.8461 16.174C66.9528 19.2918 69.4085 22.5917 70.9039 25.7039C69.7009 30.5324 61.716 37.4357 52.7213 43.5334C52.6992 44.7474 52.6882 45.8676 52.6882 46.8002C52.6882 47.9424 52.6937 49.024 52.7213 50.1773C63.3991 44.6977 74.9819 40.3935 80.2463 41.9C82.1887 44.7584 83.8276 48.5384 84.9644 52.7874C86.1894 57.3731 86.526 61.6442 86.1342 65.2421C88.2753 68.0123 90.5819 70.1699 92.8003 71.555C94.097 64.7565 94.8751 57.5166 94.8696 50.0504ZM69.2096 57.9359C71.163 53.8579 65.1316 52.9253 63.5644 55.7672C61.1143 54.7077 56.0982 52.1031 52.7211 50.1883C52.7707 52.2852 52.859 54.3049 52.986 56.3742C55.8113 58.1069 58.8518 60.0383 60.4245 61.2027C58.747 63.9839 62.5767 68.7461 65.1206 65.0268C65.1592 67.7583 66.5884 70.4016 69.1268 71.8584C72.9565 74.0767 77.8511 72.7523 80.0639 68.9337C82.2712 65.0985 80.9634 60.1928 77.1338 57.98C74.6009 56.5177 71.599 56.6005 69.2096 57.9359ZM74.9764 61.7158C76.7478 62.7422 77.3658 64.9936 76.3339 66.765C75.6441 67.968 74.4081 68.6246 73.1333 68.6246C72.5043 68.6246 71.8697 68.4701 71.2847 68.1225C69.5134 67.1126 68.9064 64.8391 69.9273 63.0678C70.9481 61.3019 73.2106 60.7005 74.9764 61.7158ZM47.4348 12.311C43.0147 12.3221 39.4279 15.9089 39.4279 20.3235C39.4279 23.2647 40.9951 25.8197 43.3403 27.2158C38.8485 27.569 41.0502 33.2638 44.295 33.1976C44.6426 36.1885 44.8192 43.0366 44.8192 46.8166C44.8192 60.7998 42.8878 77.9118 38.087 82.5416C34.6491 82.8065 30.5601 82.3319 26.3166 81.1952C21.7254 79.9701 17.8681 78.1215 14.9545 75.9805C11.4835 76.4495 8.45954 77.3655 6.15292 78.6016C11.3897 83.1376 17.2556 87.4142 23.723 91.1446C31.3326 95.5426 39.7148 99.1405 47.4348 101.508C55.0721 99.1405 63.5371 95.5426 71.1467 91.1446C77.6141 87.4142 83.48 83.1376 88.7168 78.6016C86.4102 77.3655 83.3862 76.4495 79.9152 75.9805C77.0016 78.1271 73.1388 79.9701 68.5531 81.2007C64.3041 82.3319 60.2151 82.8065 56.7827 82.5472C51.9764 77.9118 50.0505 60.7998 50.0505 46.8166C50.0505 43.0421 50.2271 36.1885 50.5747 33.1976C53.8139 33.2638 56.0212 27.569 51.5294 27.2158C53.8691 25.8197 55.4418 23.2647 55.4418 20.329C55.4418 15.9089 51.855 12.3221 47.4348 12.311ZM51.1377 20.3294C51.1377 22.3711 49.4767 24.0266 47.435 24.0266C45.3932 24.0266 43.7377 22.3711 43.7377 20.3238C43.7377 18.2821 45.3766 16.6266 47.435 16.6266C49.4933 16.6266 51.1377 18.2821 51.1377 20.3294ZM34.4448 61.2027C36.023 60.0383 39.058 58.1069 41.8834 56.3742C42.0158 54.3049 42.1041 52.2852 42.1483 50.1883C38.7711 52.1031 33.755 54.7077 31.3104 55.7672C29.7377 52.9253 23.7063 53.8579 25.6598 57.9359C23.2759 56.6005 20.274 56.5177 17.7356 57.98C13.9059 60.1928 12.5981 65.0985 14.8054 68.9337C17.0182 72.7523 21.9184 74.0767 25.7481 71.8584C28.2809 70.4016 29.7101 67.7583 29.7488 65.0268C32.2927 68.7461 36.1223 63.9839 34.4448 61.2027ZM23.5904 68.1225C23.0055 68.4701 22.3654 68.6246 21.7363 68.6246C20.4616 68.6246 19.2255 67.968 18.5357 66.765C17.5093 64.9936 18.1219 62.7422 19.8932 61.7158C21.6591 60.7005 23.9215 61.3019 24.9424 63.0678C25.9633 64.8391 25.3618 67.1126 23.5904 68.1225ZM41.2157 8.93423C42.5456 5.6895 43.263 2.60481 43.3513 0.000201757C36.8122 2.27372 30.1737 5.21494 23.7064 8.95078C15.8815 13.4702 8.90646 18.6739 2.8971 24.3301C1.00987 32.3702 0.0110656 41.0007 2.91569e-05 50.0506C-0.00548908 57.5168 0.772582 64.7567 2.07489 71.5552C4.2877 70.1701 6.59432 68.0125 8.7354 65.2423C8.3436 61.6444 8.68022 57.3733 9.91078 52.7877C11.0475 48.5386 12.6809 44.7586 14.6234 41.9002C19.8933 40.3937 31.4705 44.6979 42.1428 50.1775C42.1704 49.0242 42.1814 47.9426 42.1814 46.8004C42.1814 45.8678 42.1704 44.7476 42.1483 43.5336C33.1536 37.4359 25.1687 30.5326 23.9713 25.7041C25.4667 22.5919 27.9168 19.292 31.0291 16.1742C34.3842 12.8191 37.9048 10.391 41.2157 8.93423Z" fill="white"/>
</svg>
