<svg width="149" height="78" viewBox="0 0 149 78" fill="none" xmlns="http://www.w3.org/2000/svg">
<path d="M9.89624 65.122H10.7726V67.7361C11.0925 66.9172 11.6518 66.215 12.3767 65.7221C13.1015 65.2292 13.9578 64.9688 14.8328 64.9751V65.9503H14.7394C12.6245 65.9503 10.7726 67.554 10.7726 70.5559V74.3273H9.89624V65.122Z" fill="white"/>
<path d="M17.0935 61.5092H18.1918V62.7193H17.0935V61.5092ZM17.2045 65.122H18.0808V74.3273H17.2045V65.122Z" fill="white"/>
<path d="M20.7568 73.1701L21.2768 72.4652C22.2082 73.2261 23.366 73.6521 24.5659 73.6753C25.8044 73.6753 26.7742 72.988 26.7742 71.913V71.8777C26.7742 70.7968 25.6058 70.3974 24.3497 70.039C22.86 69.616 21.2242 69.1637 21.2242 67.5188V67.4836C21.2242 66.0032 22.4627 64.9399 24.2387 64.9399C25.3963 64.9627 26.524 65.3129 27.4928 65.9504L27.0254 66.6905C26.1915 66.1189 25.2125 65.7989 24.2037 65.7682C22.9476 65.7682 22.1239 66.4556 22.1239 67.3779V67.4131C22.1239 68.4411 23.3624 68.823 24.671 69.1755C26.1432 69.5925 27.6856 70.133 27.6856 71.7602V71.7955C27.6856 73.4345 26.2893 74.486 24.525 74.486C23.1601 74.4708 21.8373 74.0089 20.7568 73.1701Z" fill="white"/>
<path d="M30.4719 61.1744H31.3541V71.0201L37.0268 65.1456H38.1952L34.1934 69.2225L38.3237 74.351H37.2079L33.5858 69.857L31.3599 72.1128V74.351H30.4778L30.4719 61.1744Z" fill="white"/>
<path d="M46.8289 73.1994L47.3488 72.4944C48.2809 73.2542 49.4382 73.68 50.6379 73.7046C51.8764 73.7046 52.8462 73.0172 52.8462 71.9422V71.907C52.8462 70.8261 51.6778 70.4266 50.4217 70.0682C48.932 69.6335 47.2787 69.1812 47.2787 67.5363V67.4893C47.2787 66.009 48.5172 64.9457 50.2932 64.9457C51.4507 64.9685 52.5785 65.3187 53.5473 65.9561L53.0799 66.6963C52.246 66.1246 51.2669 65.8046 50.2582 65.774C49.0021 65.774 48.1784 66.4613 48.1784 67.3836V67.4188C48.1784 68.4469 49.4169 68.8287 50.7255 69.1812C52.1977 69.5983 53.74 70.1387 53.74 71.766V71.8012C53.74 73.4402 52.3438 74.4917 50.5853 74.4917C49.2272 74.4803 47.9093 74.0269 46.8289 73.1994Z" fill="white"/>
<path d="M56.5442 65.1398H57.4264V67.1959C57.8025 66.5192 58.3482 65.9534 59.0093 65.5545C59.6703 65.1557 60.4237 64.9378 61.1945 64.9225C61.8016 64.9344 62.4001 65.0685 62.9548 65.3168C63.5095 65.5652 64.0091 65.9228 64.4241 66.3686C64.839 66.8143 65.161 67.3391 65.3709 67.9121C65.5808 68.485 65.6744 69.0944 65.6462 69.7043V69.7396C65.6751 70.3517 65.5824 70.9635 65.3732 71.5391C65.1641 72.1147 64.8428 72.6425 64.4282 73.0917C64.0136 73.5409 63.5141 73.9023 62.9588 74.1549C62.4035 74.4074 61.8037 74.546 61.1945 74.5625C60.4304 74.555 59.6814 74.348 59.0209 73.9618C58.3603 73.5756 57.8109 73.0235 57.4264 72.3596V77.2354H56.5442V65.1398ZM64.6939 69.7748V69.7396C64.6939 67.3193 63.0289 65.7684 61.1069 65.7684C60.6035 65.7814 60.1077 65.8939 59.6476 66.0996C59.1875 66.3054 58.7723 66.6002 58.4256 66.9674C58.0789 67.3345 57.8076 67.7668 57.6271 68.2394C57.4467 68.7121 57.3605 69.2158 57.3738 69.722V69.7572C57.359 70.2637 57.444 70.7682 57.6239 71.2415C57.8039 71.7148 58.0751 72.1477 58.4221 72.5152C58.7691 72.8826 59.1849 73.1774 59.6457 73.3826C60.1065 73.5878 60.6031 73.6993 61.1069 73.7107C63.099 73.7225 64.6939 72.2597 64.6939 69.7866V69.7748Z" fill="white"/>
<path d="M67.7666 69.7689V69.7337C67.7666 67.0608 69.6361 64.9342 72.1131 64.9342C74.6778 64.9342 76.3136 67.0255 76.3136 69.7513C76.3228 69.8725 76.3228 69.9943 76.3136 70.1155H68.7189C68.8824 72.4066 70.5124 73.7401 72.3118 73.7401C72.908 73.7429 73.4977 73.6157 74.0403 73.3672C74.5829 73.1187 75.0655 72.7549 75.4548 72.3008L76.039 72.8413C75.5799 73.4018 75.0012 73.8512 74.3459 74.1562C73.6906 74.4613 72.9754 74.6142 72.2533 74.6036C69.8522 74.5743 67.7666 72.6416 67.7666 69.7689ZM75.3613 69.3166C75.2386 67.4602 74.1929 65.7449 72.0781 65.7449C70.2612 65.7449 68.8649 67.2781 68.7013 69.3166H75.3613Z" fill="white"/>
<path d="M78.2304 69.7865V69.7512C78.2142 68.771 78.5007 67.81 79.0503 67.0003C79.5998 66.1906 80.3855 65.5721 81.2991 65.23C82.2127 64.8879 83.2093 64.8391 84.1517 65.0901C85.0941 65.3412 85.9359 65.8798 86.5613 66.6319L85.9362 67.278C85.5659 66.8243 85.1043 66.4547 84.5817 66.1935C84.059 65.9322 83.4873 65.7853 82.9041 65.7624C82.4018 65.7737 81.9068 65.8855 81.448 66.0911C80.9891 66.2967 80.5755 66.5921 80.2313 66.9601C79.8871 67.3281 79.6192 67.7612 79.4431 68.2344C79.2671 68.7075 79.1865 69.2112 79.206 69.716V69.7512C79.1905 70.263 79.2761 70.7729 79.4578 71.2512C79.6396 71.7295 79.9139 72.1669 80.2649 72.5378C80.6159 72.9088 81.0366 73.2061 81.5027 73.4124C81.9687 73.6188 82.4709 73.7301 82.98 73.74C83.5725 73.7205 84.1537 73.5717 84.6833 73.3039C85.2129 73.0361 85.6783 72.6557 86.0472 72.1891L86.6606 72.7296C86.0654 73.5248 85.2346 74.1095 84.2878 74.3995C83.341 74.6894 82.3271 74.6697 81.3922 74.343C80.4572 74.0164 79.6496 73.3997 79.0856 72.5819C78.5215 71.7641 78.2303 70.7873 78.2538 69.7923L78.2304 69.7865Z" fill="white"/>
<path d="M89.1545 61.5386H90.2528V62.7487H89.1545V61.5386ZM89.2655 65.1514H90.1418V74.3567H89.2655V65.1514Z" fill="white"/>
<path d="M92.8351 71.6841V71.6489C92.8351 69.7338 94.4709 68.6529 96.8428 68.6529C97.8667 68.6418 98.8872 68.7742 99.8748 69.0465V68.6646C99.8748 66.8024 98.7415 65.8449 96.8603 65.8449C95.8636 65.8532 94.8837 66.1031 94.0035 66.5733L93.6822 65.7979C94.6881 65.2868 95.7976 65.0155 96.9246 65.0048C97.454 64.9676 97.9854 65.0378 98.4872 65.2114C98.9891 65.385 99.451 65.6584 99.8456 66.0152C100.168 66.3632 100.417 66.7731 100.578 67.2204C100.738 67.6676 100.807 68.1429 100.78 68.6176V74.357H99.9157V72.8238C99.5197 73.3838 98.9929 73.8374 98.3817 74.1447C97.7705 74.452 97.0936 74.6036 96.4105 74.5861C94.687 74.5744 92.8351 73.5992 92.8351 71.6841ZM99.8923 70.9087V69.8395C98.8788 69.5651 97.834 69.4249 96.7844 69.4225C94.8506 69.4225 93.7698 70.286 93.7698 71.5725V71.6078C93.7698 72.9413 95.0259 73.7167 96.428 73.7167C98.315 73.7402 99.9099 72.5888 99.9099 70.9087H99.8923Z" fill="white"/>
<path d="M104.04 61.1744H104.922V74.3568H104.04V61.1744Z" fill="white"/>
<path d="M108.404 61.5386H109.503V62.7487H108.404V61.5386ZM108.515 65.1514H109.392V74.3567H108.515V65.1514Z" fill="white"/>
<path d="M112.067 73.1994L112.587 72.4944C113.519 73.2554 114.676 73.6813 115.876 73.7046C117.115 73.7046 118.085 73.0172 118.085 71.9422V71.907C118.085 70.8261 116.916 70.4266 115.66 70.0682C114.17 69.6335 112.517 69.1812 112.517 67.5363V67.4893C112.517 66.009 113.756 64.9457 115.532 64.9457C116.689 64.9685 117.817 65.3187 118.786 65.9561L118.318 66.6963C117.484 66.1246 116.505 65.8046 115.496 65.774C114.24 65.774 113.417 66.4613 113.417 67.3836V67.4188C113.417 68.4469 114.655 68.8287 115.964 69.1812C117.436 69.5983 118.978 70.1387 118.978 71.766V71.8012C118.978 73.4402 117.582 74.4917 115.824 74.4917C114.465 74.4803 113.148 74.0269 112.067 73.1994Z" fill="white"/>
<path d="M122.087 71.9894V65.9622H120.76V65.1398H122.087V62.2025H122.969V65.1398H126.182V65.9622H122.969V71.9013C122.969 73.2172 123.74 73.6637 124.797 73.6637C125.26 73.6666 125.717 73.5641 126.135 73.3641V74.1924C125.67 74.4134 125.16 74.524 124.645 74.5155C123.214 74.539 122.087 73.74 122.087 71.9894Z" fill="white"/>
<path d="M127.999 73.1994L128.519 72.4944C129.448 73.2549 130.604 73.6809 131.802 73.7046C133.041 73.7046 134.011 73.0172 134.011 71.9422V71.907C134.011 70.8261 132.842 70.4266 131.586 70.0682C130.096 69.6335 128.449 69.1812 128.449 67.5363V67.4893C128.449 66.009 129.687 64.9457 131.463 64.9457C132.619 64.9696 133.745 65.3197 134.712 65.9561L134.244 66.6963C133.413 66.1239 132.435 65.8038 131.428 65.774C130.172 65.774 129.343 66.4613 129.343 67.3836V67.4188C129.343 68.4469 130.581 68.8287 131.896 69.1812C133.368 69.5983 134.91 70.1387 134.91 71.766V71.8012C134.91 73.4402 133.508 74.4917 131.75 74.4917C130.393 74.4795 129.078 74.0261 127.999 73.1994Z" fill="white"/>
<path d="M17.3576 2.95649C10.1517 2.95649 5.48331 5.96607 5.48331 10.7258C5.48331 24.6287 32.1599 17.4483 32.0298 34.2954C32.0298 41.345 25.7347 45.9166 16.2597 45.9166C10.2315 45.8337 4.45678 43.4648 0.0910645 39.2841L1.52249 36.8715C5.47242 40.811 10.7942 43.0466 16.3573 43.1033C24.1406 43.1033 29.1425 39.7094 29.1425 34.3608C29.2401 20.0653 2.531 27.3766 2.531 10.9221C2.531 4.33043 8.50883 0.0859375 17.4634 0.0859375C22.0575 0.108559 26.5578 1.39543 30.4763 3.80702L29.2401 6.26049C25.6554 4.08465 21.5448 2.94167 17.3576 2.95649Z" fill="white"/>
<path d="M47.0273 0.216797V21.6273H77.7379V0.216797H80.4625V45.8267H77.7379V24.3098H47.0273V45.8267H44.3027V0.216797H47.0273Z" fill="white"/>
<path d="M124.153 32.856H97.5988L91.7592 45.8267H88.7418L109.319 0.192261H112.238L133.051 45.8267H130.058L124.153 32.856ZM122.901 30.1163L110.783 3.34905L98.7699 30.1163H122.901Z" fill="white"/>
<path d="M141.021 0.0859375C139.443 0.0859375 137.901 0.556468 136.589 1.43803C135.277 2.31959 134.254 3.57258 133.65 5.03856C133.046 6.50454 132.888 8.11766 133.196 9.67394C133.504 11.2302 134.264 12.6597 135.38 13.7818C136.496 14.9038 137.917 15.6679 139.465 15.9774C141.013 16.287 142.617 16.1281 144.075 15.5209C145.533 14.9137 146.779 13.8854 147.655 12.566C148.532 11.2467 149 9.69553 149 8.10876C149 5.98098 148.159 3.94034 146.663 2.43577C145.167 0.931197 143.137 0.0859375 141.021 0.0859375ZM141.021 13.6618C139.93 13.6601 138.863 13.3331 137.956 12.7219C137.048 12.1108 136.342 11.243 135.925 10.2281C135.508 9.21332 135.4 8.09706 135.614 7.02042C135.828 5.94378 136.355 4.9551 137.128 4.17931C137.9 3.40353 138.884 2.87547 139.955 2.66187C141.026 2.44826 142.136 2.55871 143.145 2.97924C144.153 3.39977 145.015 4.11152 145.622 5.02453C146.228 5.93754 146.552 7.01083 146.552 8.10876C146.552 8.83868 146.409 9.56144 146.131 10.2357C145.853 10.91 145.445 11.5225 144.932 12.0382C144.418 12.554 143.808 12.9628 143.137 13.2414C142.466 13.52 141.747 13.6628 141.021 13.6618Z" fill="#FFD800"/>
</svg>
